<?xml version="1.0" standalone="no"?>
<!DOCTYPE svg PUBLIC "-//W3C//DTD SVG 20010904//EN"
 "http://www.w3.org/TR/2001/REC-SVG-20010904/DTD/svg10.dtd">
<svg version="1.0" xmlns="http://www.w3.org/2000/svg"
 width="500.000000pt" height="250.000000pt" viewBox="0 0 500.000000 250.000000"
 preserveAspectRatio="xMidYMid meet">
<metadata>
Created by potrace 1.13, written by Peter Selinger 2001-2015
</metadata>
<g transform="translate(0.000000,250.000000) scale(0.100000,-0.100000)"
fill="#000000" stroke="none">
<path d="M2988 1915 c-35 -19 -57 -62 -101 -197 -78 -236 -111 -438 -112 -693
0 -164 2 -184 22 -227 27 -59 50 -72 103 -58 53 14 96 68 122 154 27 90 22
238 -10 305 -12 25 -22 46 -22 47 0 1 14 4 32 8 35 7 58 23 58 41 0 9 -27 12
-99 11 -55 0 -103 2 -106 6 -21 20 66 297 146 468 28 57 48 114 47 125 -4 25
-43 30 -80 10z m-96 -712 c46 -50 61 -93 66 -185 6 -129 -35 -238 -90 -238
-39 0 -55 115 -39 278 13 130 21 172 30 172 4 0 19 -12 33 -27z"/>
<path d="M4589 1821 c-23 -25 -48 -69 -68 -119 -29 -76 -71 -255 -71 -305 0
-23 -3 -24 -43 -20 -76 9 -140 -41 -196 -151 -51 -103 -133 -173 -167 -145
-11 9 -14 42 -14 133 0 124 -11 168 -41 174 -25 5 -81 -40 -134 -107 -60 -75
-67 -63 -30 49 32 97 31 134 -6 138 -41 5 -64 -34 -84 -140 -23 -121 -32 -141
-94 -216 -97 -116 -137 -107 -128 28 3 41 13 100 22 130 29 103 30 120 8 120
-25 0 -42 -20 -78 -90 -67 -132 -168 -250 -213 -250 l-25 0 6 78 c3 42 17 115
31 162 21 71 23 87 12 99 -21 21 -67 -6 -90 -53 -21 -42 -35 -219 -22 -270 9
-38 41 -66 74 -66 38 0 111 48 158 104 21 25 42 46 46 46 4 0 8 -20 8 -45 0
-62 23 -113 53 -120 34 -9 86 16 137 64 24 22 45 41 48 41 2 0 2 -22 -2 -49
-5 -37 -3 -51 9 -61 22 -18 49 9 92 95 54 107 140 225 164 225 4 0 9 -51 11
-114 3 -105 5 -117 27 -140 39 -42 99 -29 167 36 l32 30 12 -36 c24 -75 85
-70 185 13 62 52 75 59 75 40 0 -6 10 -33 21 -60 45 -104 122 -101 229 10 74
76 96 112 86 138 -8 20 -12 16 -95 -87 -37 -46 -86 -80 -114 -80 -24 0 -47 57
-47 118 0 38 11 73 51 157 105 224 150 416 116 498 -14 32 -20 37 -48 37 -24
0 -41 -10 -70 -39z m81 -77 c0 -25 -9 -81 -20 -123 -21 -83 -96 -279 -112
-296 -22 -21 27 259 63 363 37 106 69 133 69 56z m-220 -481 c0 -45 -3 -50
-62 -108 -103 -99 -152 -111 -129 -31 24 90 111 186 168 186 21 0 23 -4 23
-47z"/>
<path d="M1052 1825 c-42 -35 -146 -199 -203 -320 l-49 -104 -57 -11 c-32 -6
-86 -20 -120 -30 -71 -20 -69 -23 -48 65 23 94 29 215 15 274 -21 88 -77 117
-172 90 -28 -7 -38 -15 -38 -31 0 -18 4 -19 34 -14 29 6 37 3 55 -20 30 -38
35 -85 22 -193 -25 -211 -28 -218 -80 -253 -161 -108 -241 -255 -181 -331 41
-52 119 -41 174 23 35 43 87 147 115 233 18 52 29 71 51 82 34 17 201 67 207
61 2 -2 -2 -28 -11 -57 -34 -123 -29 -231 13 -272 16 -16 23 -18 35 -8 13 11
13 17 -1 57 -13 40 -14 54 0 132 8 48 22 104 30 125 16 37 16 37 74 37 32 0
74 -4 93 -10 43 -12 70 -4 70 21 0 27 -38 39 -126 39 -53 0 -74 4 -74 13 1 42
123 274 187 354 18 23 33 46 33 52 0 21 -20 20 -48 -4z m-632 -661 c-34 -78
-89 -162 -111 -169 -53 -17 -48 48 10 124 40 54 114 118 119 103 1 -5 -7 -31
-18 -58z"/>
<path d="M1503 1448 c-15 -17 -29 -64 -52 -178 -42 -213 -48 -272 -27 -289 23
-20 36 -6 100 112 53 97 137 207 157 207 5 0 9 -45 9 -100 0 -117 15 -166 54
-176 38 -9 69 1 122 42 36 28 49 33 55 22 5 -7 9 -18 9 -25 0 -6 14 -23 31
-37 58 -49 178 -27 268 50 23 19 36 25 39 16 8 -24 34 -42 61 -42 36 0 90 40
173 128 37 40 70 72 73 72 3 0 5 -46 5 -103 l0 -103 -64 -47 c-77 -57 -169
-154 -196 -208 -62 -120 -12 -235 94 -215 42 8 118 73 151 130 64 109 95 270
95 489 0 148 -7 187 -35 187 -8 0 -48 -42 -88 -92 -76 -95 -168 -188 -187
-188 -23 0 -7 82 39 198 26 64 17 92 -29 92 -36 0 -43 -12 -75 -131 -20 -76
-31 -100 -62 -132 -49 -50 -102 -77 -152 -77 -47 0 -71 26 -71 76 0 26 9 38
50 70 99 75 148 184 104 228 -59 60 -178 -42 -224 -192 -22 -70 -72 -135 -119
-153 -44 -17 -51 2 -51 135 0 132 -11 169 -49 174 -17 3 -37 -11 -80 -55 -31
-32 -67 -71 -78 -88 -12 -16 -24 -28 -26 -25 -3 3 8 48 24 100 17 52 28 106
27 120 -4 35 -46 39 -75 8z m1048 -570 c-38 -152 -107 -258 -166 -258 -45 0
-56 53 -29 136 13 39 37 69 113 144 109 108 114 107 82 -22z"/>
<path d="M1163 1390 c-102 -62 -159 -263 -100 -351 29 -44 64 -56 116 -40 94
28 152 117 159 247 5 87 -10 133 -47 154 -31 16 -93 12 -128 -10z m123 -85
c18 -44 18 -69 -2 -134 -16 -56 -64 -115 -101 -126 -37 -10 -63 26 -63 88 0
109 57 207 120 207 26 0 33 -6 46 -35z"/>
</g>
</svg>
