<?xml version="1.0" encoding="utf-8"?>
<!-- Generator: Adobe Illustrator 15.0.2, SVG Export Plug-In . SVG Version: 6.00 Build 0)  -->
<!DOCTYPE svg PUBLIC "-//W3C//DTD SVG 1.1//EN" "http://www.w3.org/Graphics/SVG/1.1/DTD/svg11.dtd">
<svg version="1.1" id="Layer_1" xmlns="http://www.w3.org/2000/svg" xmlns:xlink="http://www.w3.org/1999/xlink" x="0px" y="0px"
	 width="792px" height="184px" viewBox="0 0 792 184" enable-background="new 0 0 792 184" xml:space="preserve">
<g>
	<path fill="#D71B32" d="M33.413,94.54c0-42.797,34.695-77.49,77.49-77.49c42.797,0,77.492,34.693,77.492,77.49
		c0,42.799-34.695,77.492-77.492,77.492C68.107,172.032,33.413,137.339,33.413,94.54z M110.903,94.54 M110.903,94.54
		 M110.903,146.007c28.425,0,51.467-23.042,51.467-51.467c0-28.422-23.042-51.465-51.467-51.465
		c-28.422,0-51.467,23.043-51.467,51.465C59.436,122.965,82.481,146.007,110.903,146.007z M110.903,120.771
		c14.759,0,26.725-11.966,26.725-26.726c0-14.759-11.966-26.725-26.725-26.725S84.178,79.287,84.178,94.045
		C84.178,108.806,96.144,120.771,110.903,120.771z M110.903,94.045"/>
</g>
<g>
	<g>
		<polygon fill="#D71B32" points="213.561,38.92 301.859,38.92 301.859,61.201 271.492,61.201 271.492,150.491 244.507,150.491 
			244.507,61.367 213.561,61.367 		"/>
		<path fill="#D71B32" d="M384.346,38.92c0,0,20.298,0,52.402,0c29.788,0,33.915,20.384,33.915,32.268
			c0,17.247-14.854,25.912-16.173,26.241c0,0,13.037,4.869,13.037,19.641v20.795c0,8.336,5.118,10.646,6.023,12.626h-21.29
			c-10.148-1.156-9.984-9.242-9.902-13.863V118.72c-0.246-4.375-1.568-9.244-10.728-9.408h-21.538v41.179h-25.83L384.346,38.92z
			 M434.85,61.367h-24.757v22.281c0,0,19.311,0.061,22.197,0c7.759-0.165,13.763-3.631,13.763-11.223
			C446.053,64.157,440.955,61.367,434.85,61.367z"/>
		<polygon fill="#D71B32" points="584.545,38.92 584.545,150.491 664.922,150.491 664.922,127.549 610.788,127.549 610.788,102.628 
			657,102.628 657,81.502 610.788,81.502 610.788,61.367 664.922,61.367 664.922,38.92 		"/>
		<polygon fill="#D71B32" points="668.718,61.367 700.572,61.367 700.572,150.491 726.979,150.491 726.979,61.367 759.328,61.367 
			759.328,38.92 668.718,38.92 		"/>
		<path fill="#D71B32" d="M314.795,38.9h28.635l39.018,111.59h-27.751l-8.063-23.188h-32.927l-7.603,23.188h-27.52L314.795,38.9z
			 M329.753,78.284l-9.49,28.801h19.557L329.753,78.284z"/>
		<path fill="#D71B32" d="M575.302,88.187h-47.945v21.704h22.777c-0.039,4.466,0.662,8.923-4.693,15.194
			c-1.819,2.132-8.061,6.921-16.764,6.921c-7.344,0-12.622-2.098-17.204-5.989c-10.122-8.594-12.504-24.652-12.504-33.044
			c0-10.562,4.21-36.804,30.038-37.876c0,0,17.418-1.125,21.952,19.888h24.178c-0.494-10.646-12.873-40.55-46.13-40.602
			c-11.479-0.014-26.051,3.441-38.115,15.528c-8.73,8.744-16.596,23.437-16.596,44.137c0,22.457,8.268,37.051,15.827,45.073
			c13.27,14.081,26.638,15.168,33.602,15.168c5.53,0,16.094-0.825,29.792-10.067l3.63,6.271h18.155V88.187z"/>
	</g>
	<g>
		<path fill="#D71B32" d="M740.484,147.243h-1.569v-9.551h3.621c2.309,0,3.484,0.808,3.484,2.745c0,1.731-1.062,2.447-2.491,2.608
			l2.676,4.199h-1.776l-2.468-4.084h-1.477V147.243z M742.236,141.821c1.177,0,2.215-0.116,2.215-1.499
			c0-1.154-1.13-1.292-2.076-1.292h-1.891v2.792H742.236z M742.191,150.933c-4.961,0-8.489-3.714-8.489-8.628
			c0-5.19,3.922-8.626,8.489-8.626c4.521,0,8.442,3.436,8.442,8.626C750.634,147.496,746.712,150.933,742.191,150.933z
			 M742.191,135.177c-3.737,0-6.644,2.93-6.644,7.127c0,3.921,2.537,7.129,6.644,7.129c3.691,0,6.597-2.906,6.597-7.129
			C748.788,138.107,745.883,135.177,742.191,135.177z"/>
	</g>
</g>
</svg>
